<?xml version="1.0"?>
<svg width="640" height="480" xmlns="http://www.w3.org/2000/svg" xmlns:svg="http://www.w3.org/2000/svg">
 <!-- Created with SVG-edit - https://github.com/SVG-Edit/svgedit-->
 <g class="layer">
  <title>Layer 1</title>
  <ellipse cx="295.4" cy="246.4" fill="#7fff00" id="svg_5" rx="154" ry="160" stroke="#000000" transform="matrix(1 0 0 1 0 0) matrix(1 0 0 1 0 0) matrix(1 0 0 1 0 0) matrix(1 0 0 1 0 0) matrix(1 0 0 1 0 0)"/>
  <polygon cx="256.4" cy="159.4" fill="none" id="svg_6" orient="point" point="5" points="293.3999938964844,-20.40013885498047 349.200439453125,187.59727478027344 564.260986328125,176.39190673828125 383.68701171875,293.73602294921875 460.8013000488281,494.8081359863281 293.3999938964844,359.3333435058594 125.99868774414062,494.8081359863281 203.1129913330078,293.73602294921875 22.538984298706055,176.39190673828125 237.5995635986328,187.59727478027344 293.3999938964844,-20.40013885498047 349.200439453125,187.59727478027344 " r="284.8" r2="94.93" radialshift="0" shape="star" starRadiusMultiplier="3" stroke="#000000" stroke-width="NaN" transform="matrix(1 0 0 1 0 0) matrix(1 0 0 1 0 0) matrix(1 0 0 1 0 0) matrix(1 0 0 1 0 0) matrix(1 0 0 1 0 0)">ss</polygon>
  <text fill="#000000" font-family="Serif" font-size="24" id="svg_8" stroke="#000000" stroke-width="0" text-anchor="middle" transform="matrix(1 0 0 1 0 0) matrix(13.5979 0 0 1 -4647.99 0)" x="363.4" xml:space="preserve" y="244.4"/>
  <text fill="#000000" font-family="Serif" font-size="24" id="svg_10" stroke="#000000" stroke-width="0" text-anchor="middle" transform="matrix(1 0 0 1 0 0) matrix(15.9291 0 0 1 -4141.96 0)" x="278.4" xml:space="preserve" y="267.4"/>
  <text fill="#000000" font-family="Serif" font-size="24" id="svg_11" stroke="#000000" stroke-width="0" text-anchor="middle" x="295.4" xml:space="preserve" y="264.4"/>
  <text fill="#000000" font-family="Serif" font-size="24" id="svg_12" stroke="#000000" stroke-width="0" text-anchor="middle" x="297.4" xml:space="preserve" y="252.4"/>
  <text fill="#000000" font-family="Serif" font-size="24" id="svg_13" stroke="#000000" stroke-width="0" text-anchor="middle" x="286.4" xml:space="preserve" y="268.4"/>
  <text fill="#000000" font-family="Serif" font-size="24" id="svg_14" stroke="#000000" stroke-width="0" text-anchor="middle" x="333.4" xml:space="preserve" y="178.4"/>
  <text fill="#000000" font-family="Serif" font-size="24" id="svg_15" stroke="#000000" stroke-width="0" text-anchor="middle" x="285.4" xml:space="preserve" y="247.4"/>
  <text fill="#000000" font-family="Serif" font-size="24" id="svg_16" stroke="#000000" stroke-width="0" text-anchor="middle" x="471.4" xml:space="preserve" y="150.4"/>
  <text fill="#000000" font-family="Serif" font-size="24" id="svg_17" stroke="#000000" stroke-width="0" text-anchor="middle" x="599.4" xml:space="preserve" y="275.4"/>
  <text fill="#000000" font-family="Serif" font-size="24" id="svg_18" stroke="#000000" stroke-width="0" text-anchor="middle" x="564.4" xml:space="preserve" y="264.4"/>
  <text fill="#000000" font-family="Serif" font-size="24" id="svg_19" stroke="#000000" stroke-width="0" text-anchor="middle" x="556.4" xml:space="preserve" y="227.4"/>
  <text fill="#000000" font-family="Serif" font-size="24" id="svg_20" stroke="#000000" stroke-width="0" text-anchor="middle" x="322.4" xml:space="preserve" y="247.4"/>
  <text fill="#000000" font-family="Serif" font-size="24" id="svg_21" stroke="#000000" stroke-width="0" text-anchor="middle" x="308.4" xml:space="preserve" y="292.4"/>
 </g>
</svg>